<?xml version="1.0" encoding="UTF-8" standalone="no"?>
<svg
   xmlns:dc="http://purl.org/dc/elements/1.1/"
   xmlns:cc="http://creativecommons.org/ns#"
   xmlns:rdf="http://www.w3.org/1999/02/22-rdf-syntax-ns#"
   xmlns:svg="http://www.w3.org/2000/svg"
   xmlns="http://www.w3.org/2000/svg"
   xmlns:sodipodi="http://sodipodi.sourceforge.net/DTD/sodipodi-0.dtd"
   xmlns:inkscape="http://www.inkscape.org/namespaces/inkscape"
   width="141.39296mm"
   height="84.334892mm"
   viewBox="0 0 141.39296 84.334892"
   version="1.1"
   id="svg8"
   inkscape:version="1.0.1 (3bc2e813f5, 2020-09-07)"
   sodipodi:docname="FBI_Most_Wanted.svg">
  <defs
     id="defs2" />
  <sodipodi:namedview
     id="base"
     pagecolor="#ffffff"
     bordercolor="#666666"
     borderopacity="1.0"
     inkscape:pageopacity="0.0"
     inkscape:pageshadow="2"
     inkscape:zoom="0.35"
     inkscape:cx="79.110712"
     inkscape:cy="-320.3405"
     inkscape:document-units="mm"
     inkscape:current-layer="layer1"
     inkscape:document-rotation="0"
     showgrid="false"
     fit-margin-top="0"
     fit-margin-left="0"
     fit-margin-right="0"
     fit-margin-bottom="0"
     inkscape:window-width="1920"
     inkscape:window-height="1010"
     inkscape:window-x="-1926"
     inkscape:window-y="473"
     inkscape:window-maximized="1" />
  <metadata
     id="metadata5">
    <rdf:RDF>
      <cc:Work
         rdf:about="">
        <dc:format>image/svg+xml</dc:format>
        <dc:type
           rdf:resource="http://purl.org/dc/dcmitype/StillImage" />
        <dc:title></dc:title>
      </cc:Work>
    </rdf:RDF>
  </metadata>
  <g
     inkscape:label="Ebene 1"
     inkscape:groupmode="layer"
     id="layer1"
     transform="translate(-240.75737,-190.18409)">
    <g
       id="g44"
       transform="matrix(2.0218394,0,0,2.0218394,20.286552,-237.08206)">
      <path
         id="rect28"
         style="fill:#0a0a0a;fill-opacity:1;stroke-width:4.039;stroke-linecap:round;stroke-linejoin:round"
         d="m 109.31324,243.88345 h 69.62371 v 9.15398 h -69.62371 z" />
      <g
         aria-label="MOST WANTED"
         transform="scale(0.99878902,1.0012125)"
         id="text26"
         style="font-size:8.52761px;line-height:1.25;font-family:sans-serif;fill:#d5a110;fill-opacity:1;stroke-width:0.0638494">
        <path
           d="m 111.03795,251.14423 h 0.42638 v -5.18479 l 2.36215,3.43663 h 0.0341 l 2.36215,-3.43663 v 5.18479 h 0.44343 v -5.96933 h -0.41785 l -2.39626,3.53043 -2.39626,-3.53043 h -0.41785 z"
           style="font-style:normal;font-variant:normal;font-weight:normal;font-stretch:normal;font-family:'Gotham Light';-inkscape-font-specification:'Gotham Light, ';fill:#d5a110;fill-opacity:1;stroke-width:0.0638494"
           id="path881" />
        <path
           d="m 121.16873,251.24656 c 1.80786,0 3.01025,-1.45822 3.01025,-3.087 v -0.0171 c 0,-1.62878 -1.18534,-3.06994 -2.99319,-3.06994 -1.80785,0 -3.01025,1.45822 -3.01025,3.08699 v 0.0171 c 0,1.62877 1.18534,3.06994 2.99319,3.06994 z m 0.0171,-0.4008 c -1.47528,0 -2.54976,-1.21092 -2.54976,-2.6862 v -0.0171 c 0,-1.47528 1.05743,-2.66914 2.5327,-2.66914 1.47528,0 2.54976,1.21092 2.54976,2.68619 v 0.0171 c 0,1.47527 -1.05743,2.66914 -2.5327,2.66914 z"
           style="font-style:normal;font-variant:normal;font-weight:normal;font-stretch:normal;font-family:'Gotham Light';-inkscape-font-specification:'Gotham Light, ';fill:#d5a110;fill-opacity:1;stroke-width:0.0638494"
           id="path883" />
        <path
           d="m 127.66675,251.2295 c 1.15123,0 1.97841,-0.66515 1.97841,-1.62877 v -0.0171 c 0,-0.86981 -0.57988,-1.36441 -1.96135,-1.64583 -1.41559,-0.28993 -1.73964,-0.67368 -1.73964,-1.30472 v -0.017 c 0,-0.62252 0.57988,-1.12565 1.45822,-1.12565 0.65663,0 1.21945,0.18761 1.78227,0.67368 l 0.28142,-0.34963 c -0.60546,-0.48607 -1.17681,-0.72485 -2.04663,-0.72485 -1.10859,0 -1.91871,0.68221 -1.91871,1.56908 v 0.0171 c 0,0.90393 0.57987,1.39 2.01251,1.67994 1.35589,0.27288 1.68847,0.63957 1.68847,1.27061 v 0.0171 c 0,0.68221 -0.61399,1.18533 -1.50939,1.18533 -0.87834,0 -1.4838,-0.28141 -2.14043,-0.88687 l -0.28994,0.33258 c 0.71632,0.63957 1.4497,0.95509 2.40479,0.95509 z"
           style="font-style:normal;font-variant:normal;font-weight:normal;font-stretch:normal;font-family:'Gotham Light';-inkscape-font-specification:'Gotham Light, ';fill:#d5a110;fill-opacity:1;stroke-width:0.0638494"
           id="path885" />
        <path
           d="m 132.6298,251.14423 h 0.44344 v -5.56001 h 2.08074 v -0.40932 h -4.60491 v 0.40932 h 2.08073 z"
           style="font-style:normal;font-variant:normal;font-weight:normal;font-stretch:normal;font-family:'Gotham Light';-inkscape-font-specification:'Gotham Light, ';fill:#d5a110;fill-opacity:1;stroke-width:0.0638494"
           id="path887" />
        <path
           d="m 140.76512,251.18686 h 0.35816 l 1.74816,-5.18478 1.74816,5.18478 h 0.35816 l 2.16602,-6.01196 h -0.46049 l -1.87608,5.3127 -1.74816,-5.32976 h -0.3411 l -1.74816,5.32976 -1.87608,-5.3127 h -0.4946 z"
           style="font-style:normal;font-variant:normal;font-weight:normal;font-stretch:normal;font-family:'Gotham Light';-inkscape-font-specification:'Gotham Light, ';fill:#d5a110;fill-opacity:1;stroke-width:0.0638494"
           id="path889" />
        <path
           d="m 147.17788,251.14423 h 0.46049 l 0.75896,-1.67142 h 3.5219 l 0.75896,1.67142 h 0.48607 l -2.78,-6.01197 h -0.42638 z m 1.40706,-2.07221 1.5776,-3.45369 1.56908,3.45369 z"
           style="font-style:normal;font-variant:normal;font-weight:normal;font-stretch:normal;font-family:'Gotham Light';-inkscape-font-specification:'Gotham Light, ';fill:#d5a110;fill-opacity:1;stroke-width:0.0638494"
           id="path891" />
        <path
           d="m 154.42634,251.14423 h 0.42638 v -5.30418 l 4.20411,5.30418 h 0.33258 v -5.96933 h -0.42638 v 5.19331 l -4.11884,-5.19331 h -0.41785 z"
           style="font-style:normal;font-variant:normal;font-weight:normal;font-stretch:normal;font-family:'Gotham Light';-inkscape-font-specification:'Gotham Light, ';fill:#d5a110;fill-opacity:1;stroke-width:0.0638494"
           id="path893" />
        <path
           d="m 162.8175,251.14423 h 0.44344 v -5.56001 h 2.08073 v -0.40932 h -4.60491 v 0.40932 h 2.08074 z"
           style="font-style:normal;font-variant:normal;font-weight:normal;font-stretch:normal;font-family:'Gotham Light';-inkscape-font-specification:'Gotham Light, ';fill:#d5a110;fill-opacity:1;stroke-width:0.0638494"
           id="path895" />
        <path
           d="m 166.68903,251.14423 h 4.28938 v -0.40933 h -3.84595 v -2.39626 h 3.41957 v -0.40932 h -3.41957 v -2.3451 h 3.80332 v -0.40932 h -4.24675 z"
           style="font-style:normal;font-variant:normal;font-weight:normal;font-stretch:normal;font-family:'Gotham Light';-inkscape-font-specification:'Gotham Light, ';fill:#d5a110;fill-opacity:1;stroke-width:0.0638494"
           id="path897" />
        <path
           d="m 172.40251,251.14423 h 1.98693 c 1.87608,0 3.17227,-1.30473 3.17227,-2.98467 v -0.0171 c 0,-1.67994 -1.29619,-2.96761 -3.17227,-2.96761 h -1.98693 z m 1.98693,-5.56001 c 1.66288,0 2.71178,1.15976 2.71178,2.57534 v 0.0171 c 0,1.42411 -1.0489,2.55828 -2.71178,2.55828 h -1.5435 v -5.15068 z"
           style="font-style:normal;font-variant:normal;font-weight:normal;font-stretch:normal;font-family:'Gotham Light';-inkscape-font-specification:'Gotham Light, ';fill:#d5a110;fill-opacity:1;stroke-width:0.0638494"
           id="path899" />
      </g>
    </g>
    <g
       aria-label="FBI:"
       transform="scale(0.98608591,1.0141104)"
       id="text866"
       style="font-size:93.5001px;line-height:1.25;font-family:sans-serif;fill:#d5a110;fill-opacity:1;stroke-width:0.700071">
      <path
         d="m 244.15456,249.24792 h 11.73228 v -26.94313 h 28.75327 v -9.63051 h -28.75327 v -15.50591 h 32.70464 v -9.63051 h -44.43692 z"
         style="font-style:normal;font-variant:normal;font-weight:600;font-stretch:normal;font-family:'Quiet Sans';-inkscape-font-specification:'Quiet Sans Semi-Bold';fill:#d5a110;fill-opacity:1;stroke-width:0.700071"
         id="path868"
         sodipodi:nodetypes="ccccccccccc" />
      <path
         d="m 296.96162,249.24792 h 31.07685 c 14.01889,0 21.66557,-5.984 21.66557,-17.29751 0,-7.94751 -3.82333,-13.27702 -11.37197,-15.42752 v -0.187 c 5.48992,-2.244 8.13684,-6.45151 8.13684,-12.90301 0,-10.47201 -7.25454,-15.89502 -21.37146,-15.89502 h -28.13583 z m 11.1759,-36.09103 v -16.08202 h 16.17566 c 7.74469,0 10.88179,2.431 10.88179,8.04101 0,5.61 -3.1371,8.04101 -10.78376,8.04101 z m 0,26.55402 V 222.6004 h 17.35206 c 9.11719,0 12.74445,2.5245 12.74445,8.60201 0,5.8905 -3.43119,8.5085 -11.7641,8.5085 z"
         style="font-style:normal;font-variant:normal;font-weight:600;font-stretch:normal;font-family:'Quiet Sans';-inkscape-font-specification:'Quiet Sans Semi-Bold';fill:#d5a110;fill-opacity:1;stroke-width:0.716844"
         id="path870" />
      <path
         d="m 359.72051,249.24792 h 10.65901 v -61.71006 h -10.65901 z"
         style="font-style:normal;font-variant:normal;font-weight:600;font-stretch:normal;font-family:'Quiet Sans';-inkscape-font-specification:'Quiet Sans Semi-Bold';fill:#d5a110;fill-opacity:1;stroke-width:0.700071"
         id="path872" />
      <g
         aria-label="."
         transform="scale(1.1146807,0.89711792)"
         id="text879"
         style="font-size:62.3523px;line-height:1.25;font-family:sans-serif;fill:#d5a110;fill-opacity:1;stroke-width:0.326832">
        <path
           d="m 347.67143,235.6595 h -7.27647 v -8.67696 h 7.27647 z"
           style="fill:#d5a110;fill-opacity:1;stroke-width:0.326832"
           id="path886" />
      </g>
      <g
         aria-label="."
         transform="scale(1.1146807,0.8971179)"
         id="text883"
         style="font-size:62.3523px;line-height:1.25;font-family:sans-serif;fill:#d5a110;fill-opacity:1;stroke-width:0.326832">
        <path
           d="m 347.67143,260.48349 h -7.27647 v -8.67696 h 7.27647 z"
           style="fill:#d5a110;fill-opacity:1;stroke-width:0.326832"
           id="path890" />
      </g>
    </g>
  </g>
</svg>
